<svg width="80" height="80" viewBox="0 0 80 80" fill="none" xmlns="http://www.w3.org/2000/svg">
<path fill-rule="evenodd" clip-rule="evenodd" d="M57.999 60C57.999 68.0418 54.3481 75.2308 48.6133 80H79.999V0H48.6133C54.3481 4.76922 57.999 11.9582 57.999 20C57.999 28.0418 54.3481 35.2308 48.6133 40C54.3481 44.7692 57.999 51.9582 57.999 60Z" fill="white"/>
<path d="M15.3857 80H32C33.0196 80 34.0214 79.9237 35 79.7765C44.6225 78.329 52 70.0261 52 60C52 53.1202 48.5263 47.0518 43.2371 43.4529C40.8182 41.8071 38.0197 40.6777 35 40.2235C34.0214 40.0763 33.0196 40 32 40C36.1659 40 40.0344 38.7263 43.2371 36.5471C48.5263 32.9482 52 26.8798 52 20C52 8.9543 43.0457 0 32 0H15.3857H0V80H15.3857Z" fill="white"/>
</svg>
