<svg xmlns="http://www.w3.org/2000/svg" width="1200" height="630" viewBox="0 0 1200 630">
  <defs>
    <linearGradient id="bg" x1="0%" y1="0%" x2="100%" y2="100%">
      <stop offset="0%" style="stop-color:#0b1220"/>
      <stop offset="100%" style="stop-color:#1e293b"/>
    </linearGradient>
    <linearGradient id="accent" x1="0%" y1="0%" x2="100%" y2="0%">
      <stop offset="0%" style="stop-color:#3b82f6"/>
      <stop offset="100%" style="stop-color:#8b5cf6"/>
    </linearGradient>
  </defs>
  <rect width="1200" height="630" fill="url(#bg)"/>
  <rect x="0" y="620" width="1200" height="10" fill="url(#accent)"/>
  <g opacity="0.05" stroke="#ffffff" stroke-width="1">
    <line x1="100" y1="0" x2="100" y2="630"/>
    <line x1="300" y1="0" x2="300" y2="630"/>
    <line x1="500" y1="0" x2="500" y2="630"/>
    <line x1="700" y1="0" x2="700" y2="630"/>
    <line x1="900" y1="0" x2="900" y2="630"/>
    <line x1="1100" y1="0" x2="1100" y2="630"/>
    <line x1="0" y1="100" x2="1200" y2="100"/>
    <line x1="0" y1="300" x2="1200" y2="300"/>
    <line x1="0" y1="500" x2="1200" y2="500"/>
  </g>
  <g transform="translate(720, 180)" opacity="0.15">
    <line x1="0" y1="100" x2="400" y2="100" stroke="#3b82f6" stroke-width="4"/>
    <line x1="0" y1="100" x2="0" y2="200" stroke="#3b82f6" stroke-width="3"/>
    <line x1="400" y1="100" x2="400" y2="200" stroke="#3b82f6" stroke-width="3"/>
    <line x1="0" y1="100" x2="200" y2="0" stroke="#3b82f6" stroke-width="2"/>
    <line x1="200" y1="0" x2="400" y2="100" stroke="#3b82f6" stroke-width="2"/>
    <circle cx="0" cy="100" r="6" fill="#3b82f6"/>
    <circle cx="200" cy="0" r="6" fill="#8b5cf6"/>
    <circle cx="400" cy="100" r="6" fill="#3b82f6"/>
  </g>
  <text x="80" y="250" font-family="Inter, system-ui, sans-serif" font-size="64" font-weight="700" fill="#ffffff">BeamLab Ultimate</text>
  <text x="80" y="320" font-family="Inter, system-ui, sans-serif" font-size="28" font-weight="400" fill="#94a3b8">Professional Structural Analysis Platform</text>
  <text x="80" y="380" font-family="Inter, system-ui, sans-serif" font-size="18" font-weight="400" fill="#64748b">FEM · P-Delta · Modal Analysis · AI-Powered · Real-time Collaboration</text>
</svg>
