<svg width="311" height="96" viewBox="0 0 311 96" fill="none" xmlns="http://www.w3.org/2000/svg">
<path d="M42.7656 28.1172C42.7656 29.3672 42.6016 30.4531 42.2734 31.375C41.9453 32.2969 41.4844 33.0938 40.8906 33.7656C40.3125 34.4219 39.6094 34.9609 38.7812 35.3828C37.9688 35.7891 37.0625 36.1172 36.0625 36.3672C35.0781 36.6016 34.0234 36.7656 32.8984 36.8594C31.7734 36.9531 30.6094 37 29.4062 37H6.03906V4.79688H28.9844C29.9062 4.79688 30.8281 4.83594 31.75 4.91406C32.6875 4.99219 33.5781 5.14063 34.4219 5.35938C35.2656 5.5625 36.0469 5.85156 36.7656 6.22656C37.5 6.60156 38.1328 7.09375 38.6641 7.70312C39.2109 8.3125 39.6328 9.04687 39.9297 9.90625C40.2422 10.7656 40.3984 11.7812 40.3984 12.9531C40.3984 15.0469 39.8828 16.7109 38.8516 17.9453C37.8203 19.1641 36.1953 19.9766 33.9766 20.3828C35.5391 20.4922 36.875 20.7344 37.9844 21.1094C39.1094 21.4688 40.0234 21.9688 40.7266 22.6094C41.4297 23.2344 41.9453 24.0078 42.2734 24.9297C42.6016 25.8359 42.7656 26.8984 42.7656 28.1172ZM31.9141 14.3359C31.9141 13.9297 31.8516 13.5469 31.7266 13.1875C31.6016 12.8125 31.375 12.4844 31.0469 12.2031C30.7188 11.9219 30.2734 11.6953 29.7109 11.5234C29.1484 11.3516 28.4297 11.2656 27.5547 11.2656H14.7344V17.3125H27.5547C28.4297 17.3125 29.1484 17.2344 29.7109 17.0781C30.2734 16.9219 30.7188 16.7109 31.0469 16.4453C31.375 16.1797 31.6016 15.8672 31.7266 15.5078C31.8516 15.1328 31.9141 14.7422 31.9141 14.3359ZM33.9297 27.1094C33.9297 26.375 33.8047 25.7891 33.5547 25.3516C33.3047 24.8984 32.9141 24.5547 32.3828 24.3203C31.8516 24.0703 31.1641 23.9062 30.3203 23.8281C29.4766 23.75 28.4688 23.7109 27.2969 23.7109H14.7344V30.5312H27.2969C28.4688 30.5312 29.4766 30.4922 30.3203 30.4141C31.1641 30.3359 31.8516 30.1719 32.3828 29.9219C32.9141 29.6719 33.3047 29.3281 33.5547 28.8906C33.8047 28.4375 33.9297 27.8438 33.9297 27.1094ZM49.2709 37V4.79688H81.8725V11.6641H58.2006V16.9844H80.6538V23.8516H58.2006V30.1328H82.2006V37H49.2709ZM115.05 30.9062H97.0966L94.0731 37H84.37L101.222 4.79688H110.925L127.776 37H118.073L115.05 30.9062ZM100.214 24.625H111.979L106.12 12.7656L100.214 24.625ZM172.555 37V14.3828L160.602 37H152.258L140.305 14.3828V37H131.61V4.79688H143.422L156.43 29.1719L169.438 4.79688H181.203V37H172.555ZM189.842 37V4.79688H198.537V29.9453H222.045V37H189.842ZM253.464 30.9062H235.511L232.488 37H222.784L239.636 4.79688H249.339L266.191 37H256.488L253.464 30.9062ZM238.628 24.625H250.394L244.534 12.7656L238.628 24.625ZM306.751 28.1172C306.751 29.3672 306.587 30.4531 306.258 31.375C305.93 32.2969 305.469 33.0938 304.876 33.7656C304.297 34.4219 303.594 34.9609 302.766 35.3828C301.954 35.7891 301.047 36.1172 300.047 36.3672C299.063 36.6016 298.008 36.7656 296.883 36.8594C295.758 36.9531 294.594 37 293.391 37H270.024V4.79688H292.969C293.891 4.79688 294.813 4.83594 295.735 4.91406C296.672 4.99219 297.563 5.14063 298.407 5.35938C299.251 5.5625 300.032 5.85156 300.751 6.22656C301.485 6.60156 302.118 7.09375 302.649 7.70312C303.196 8.3125 303.618 9.04687 303.915 9.90625C304.227 10.7656 304.383 11.7812 304.383 12.9531C304.383 15.0469 303.868 16.7109 302.837 17.9453C301.805 19.1641 300.18 19.9766 297.962 20.3828C299.524 20.4922 300.86 20.7344 301.969 21.1094C303.094 21.4688 304.008 21.9688 304.712 22.6094C305.415 23.2344 305.93 24.0078 306.258 24.9297C306.587 25.8359 306.751 26.8984 306.751 28.1172ZM295.899 14.3359C295.899 13.9297 295.837 13.5469 295.712 13.1875C295.587 12.8125 295.36 12.4844 295.032 12.2031C294.704 11.9219 294.258 11.6953 293.696 11.5234C293.133 11.3516 292.415 11.2656 291.54 11.2656H278.719V17.3125H291.54C292.415 17.3125 293.133 17.2344 293.696 17.0781C294.258 16.9219 294.704 16.7109 295.032 16.4453C295.36 16.1797 295.587 15.8672 295.712 15.5078C295.837 15.1328 295.899 14.7422 295.899 14.3359ZM297.915 27.1094C297.915 26.375 297.79 25.7891 297.54 25.3516C297.29 24.8984 296.899 24.5547 296.368 24.3203C295.837 24.0703 295.149 23.9062 294.305 23.8281C293.462 23.75 292.454 23.7109 291.282 23.7109H278.719V30.5312H291.282C292.454 30.5312 293.462 30.4922 294.305 30.4141C295.149 30.3359 295.837 30.1719 296.368 29.9219C296.899 29.6719 297.29 29.3281 297.54 28.8906C297.79 28.4375 297.915 27.8438 297.915 27.1094Z" fill="#0172B5"/>
<path d="M43.0547 73.4746C43.0547 75.084 42.6562 76.5996 41.8594 78.0215C41.0625 79.4434 39.8672 80.6855 38.2734 81.748C36.6797 82.8105 34.6875 83.6543 32.2969 84.2793C29.9219 84.8887 27.1406 85.1934 23.9531 85.1934C20.7656 85.1934 17.9688 84.8887 15.5625 84.2793C13.1719 83.6543 11.1797 82.8105 9.58594 81.748C7.99219 80.6855 6.79688 79.4434 6 78.0215C5.20312 76.5996 4.80469 75.084 4.80469 73.4746V52.123H13.4766V70.3574C13.4766 71.4355 13.6094 72.459 13.875 73.4277C14.1562 74.3809 14.6719 75.2168 15.4219 75.9355C16.1875 76.6543 17.25 77.2246 18.6094 77.6465C19.9844 78.0684 21.7656 78.2793 23.9531 78.2793C26.125 78.2793 27.8906 78.0684 29.25 77.6465C30.6094 77.2246 31.6641 76.6543 32.4141 75.9355C33.1797 75.2168 33.6953 74.3809 33.9609 73.4277C34.2266 72.459 34.3594 71.4355 34.3594 70.3574V52.123H43.0547V73.4746ZM51.4584 84.3262V52.123H60.1538V77.2715H83.6616V84.3262H51.4584ZM104.206 59.1309V84.3262H95.5106V59.1309H81.8466V52.123H117.893V59.1309H104.206ZM122.219 84.3262V52.123H130.914V84.3262H122.219ZM180.521 84.3262V61.709L168.568 84.3262H160.224L148.271 61.709V84.3262H139.576V52.123H151.388L164.396 76.498L177.404 52.123H189.17V84.3262H180.521ZM223.683 78.2324H205.73L202.706 84.3262H193.003L209.855 52.123H219.558L236.409 84.3262H226.706L223.683 78.2324ZM208.847 71.9512H220.613L214.753 60.0918L208.847 71.9512ZM256.415 59.1309V84.3262H247.719V59.1309H234.055V52.123H270.102V59.1309H256.415ZM274.428 84.3262V52.123H307.029V58.9902H283.358V64.3105H305.811V71.1777H283.358V77.459H307.358V84.3262H274.428Z" fill="#003451"/>
</svg>
